<mxfile host="app.diagrams.net" modified="2022-08-22T09:59:34.536Z" agent="5.0 (X11; Linux x86_64) AppleWebKit/537.36 (KHTML, like Gecko) Chrome/104.0.0.0 Safari/537.36" etag="jcLb3GWWnizHAZM4BycH" version="20.2.6" type="github">
  <diagram id="KuykX9Fl7-tpJHUuQPa9" name="Page-1">
    <mxGraphModel dx="966" dy="-641" grid="1" gridSize="10" guides="1" tooltips="1" connect="1" arrows="1" fold="1" page="1" pageScale="1" pageWidth="827" pageHeight="1169" math="0" shadow="0">
      <root>
        <mxCell id="0" />
        <mxCell id="1" parent="0" />
        <mxCell id="U3MqHlU8IIbX6q1QZV_S-2" value="VPC" style="points=[[0,0],[0.25,0],[0.5,0],[0.75,0],[1,0],[1,0.25],[1,0.5],[1,0.75],[1,1],[0.75,1],[0.5,1],[0.25,1],[0,1],[0,0.75],[0,0.5],[0,0.25]];outlineConnect=0;gradientColor=none;html=1;whiteSpace=wrap;fontSize=12;fontStyle=0;container=1;pointerEvents=0;collapsible=0;recursiveResize=0;shape=mxgraph.aws4.group;grIcon=mxgraph.aws4.group_vpc;strokeColor=#248814;fillColor=none;verticalAlign=top;align=left;spacingLeft=30;fontColor=#AAB7B8;dashed=0;" vertex="1" parent="1">
          <mxGeometry x="90" y="1190" width="500" height="500" as="geometry" />
        </mxCell>
        <mxCell id="U3MqHlU8IIbX6q1QZV_S-8" value="Private subnet" style="points=[[0,0],[0.25,0],[0.5,0],[0.75,0],[1,0],[1,0.25],[1,0.5],[1,0.75],[1,1],[0.75,1],[0.5,1],[0.25,1],[0,1],[0,0.75],[0,0.5],[0,0.25]];outlineConnect=0;gradientColor=none;html=1;whiteSpace=wrap;fontSize=12;fontStyle=0;container=1;pointerEvents=0;collapsible=0;recursiveResize=0;shape=mxgraph.aws4.group;grIcon=mxgraph.aws4.group_security_group;grStroke=0;strokeColor=#147EBA;fillColor=#E6F2F8;verticalAlign=top;align=left;spacingLeft=30;fontColor=#147EBA;dashed=0;" vertex="1" parent="U3MqHlU8IIbX6q1QZV_S-2">
          <mxGeometry x="10" y="40" width="200" height="280" as="geometry" />
        </mxCell>
        <mxCell id="U3MqHlU8IIbX6q1QZV_S-12" value="" style="sketch=0;points=[[0,0,0],[0.25,0,0],[0.5,0,0],[0.75,0,0],[1,0,0],[0,1,0],[0.25,1,0],[0.5,1,0],[0.75,1,0],[1,1,0],[0,0.25,0],[0,0.5,0],[0,0.75,0],[1,0.25,0],[1,0.5,0],[1,0.75,0]];outlineConnect=0;fontColor=#232F3E;gradientColor=#F78E04;gradientDirection=north;fillColor=#D05C17;strokeColor=#ffffff;dashed=0;verticalLabelPosition=bottom;verticalAlign=top;align=center;html=1;fontSize=12;fontStyle=0;aspect=fixed;shape=mxgraph.aws4.resourceIcon;resIcon=mxgraph.aws4.ec2;" vertex="1" parent="U3MqHlU8IIbX6q1QZV_S-8">
          <mxGeometry x="30" y="101" width="78" height="78" as="geometry" />
        </mxCell>
        <mxCell id="U3MqHlU8IIbX6q1QZV_S-9" value="" style="outlineConnect=0;dashed=0;verticalLabelPosition=bottom;verticalAlign=top;align=center;html=1;shape=mxgraph.aws3.application_load_balancer;fillColor=#F58534;gradientColor=none;rotation=90;" vertex="1" parent="U3MqHlU8IIbX6q1QZV_S-8">
          <mxGeometry x="138.5" y="89" width="49.5" height="54" as="geometry" />
        </mxCell>
        <mxCell id="U3MqHlU8IIbX6q1QZV_S-7" value="Public subnet" style="points=[[0,0],[0.25,0],[0.5,0],[0.75,0],[1,0],[1,0.25],[1,0.5],[1,0.75],[1,1],[0.75,1],[0.5,1],[0.25,1],[0,1],[0,0.75],[0,0.5],[0,0.25]];outlineConnect=0;gradientColor=none;html=1;whiteSpace=wrap;fontSize=12;fontStyle=0;container=1;pointerEvents=0;collapsible=0;recursiveResize=0;shape=mxgraph.aws4.group;grIcon=mxgraph.aws4.group_security_group;grStroke=0;strokeColor=#248814;fillColor=#E9F3E6;verticalAlign=top;align=left;spacingLeft=30;fontColor=#248814;dashed=0;" vertex="1" parent="U3MqHlU8IIbX6q1QZV_S-2">
          <mxGeometry x="250" y="40" width="220" height="290" as="geometry" />
        </mxCell>
        <mxCell id="U3MqHlU8IIbX6q1QZV_S-10" value="" style="outlineConnect=0;dashed=0;verticalLabelPosition=bottom;verticalAlign=top;align=center;html=1;shape=mxgraph.aws3.application_load_balancer;fillColor=#F58534;gradientColor=none;direction=south;rotation=-180;" vertex="1" parent="U3MqHlU8IIbX6q1QZV_S-7">
          <mxGeometry x="-1" y="94" width="52" height="50" as="geometry" />
        </mxCell>
        <mxCell id="U3MqHlU8IIbX6q1QZV_S-11" value="" style="sketch=0;points=[[0,0,0],[0.25,0,0],[0.5,0,0],[0.75,0,0],[1,0,0],[0,1,0],[0.25,1,0],[0.5,1,0],[0.75,1,0],[1,1,0],[0,0.25,0],[0,0.5,0],[0,0.75,0],[1,0.25,0],[1,0.5,0],[1,0.75,0]];outlineConnect=0;fontColor=#232F3E;gradientColor=#F78E04;gradientDirection=north;fillColor=#D05C17;strokeColor=#ffffff;dashed=0;verticalLabelPosition=bottom;verticalAlign=top;align=center;html=1;fontSize=12;fontStyle=0;aspect=fixed;shape=mxgraph.aws4.resourceIcon;resIcon=mxgraph.aws4.ec2;" vertex="1" parent="U3MqHlU8IIbX6q1QZV_S-7">
          <mxGeometry x="100" y="80" width="78" height="78" as="geometry" />
        </mxCell>
        <mxCell id="U3MqHlU8IIbX6q1QZV_S-13" value="" style="sketch=0;outlineConnect=0;fontColor=#232F3E;gradientColor=none;fillColor=#4D27AA;strokeColor=none;dashed=0;verticalLabelPosition=bottom;verticalAlign=top;align=center;html=1;fontSize=12;fontStyle=0;aspect=fixed;pointerEvents=1;shape=mxgraph.aws4.nat_gateway;" vertex="1" parent="U3MqHlU8IIbX6q1QZV_S-7">
          <mxGeometry x="70" y="197" width="78" height="78" as="geometry" />
        </mxCell>
        <mxCell id="U3MqHlU8IIbX6q1QZV_S-18" style="edgeStyle=orthogonalEdgeStyle;rounded=0;orthogonalLoop=1;jettySize=auto;html=1;" edge="1" parent="U3MqHlU8IIbX6q1QZV_S-2" source="U3MqHlU8IIbX6q1QZV_S-13" target="U3MqHlU8IIbX6q1QZV_S-8">
          <mxGeometry relative="1" as="geometry">
            <Array as="points">
              <mxPoint x="359" y="380" />
              <mxPoint x="105" y="380" />
            </Array>
          </mxGeometry>
        </mxCell>
        <mxCell id="U3MqHlU8IIbX6q1QZV_S-17" value="" style="edgeStyle=orthogonalEdgeStyle;rounded=0;orthogonalLoop=1;jettySize=auto;html=1;" edge="1" parent="1" source="U3MqHlU8IIbX6q1QZV_S-14" target="U3MqHlU8IIbX6q1QZV_S-15">
          <mxGeometry relative="1" as="geometry" />
        </mxCell>
        <mxCell id="U3MqHlU8IIbX6q1QZV_S-14" value="" style="outlineConnect=0;dashed=0;verticalLabelPosition=bottom;verticalAlign=top;align=center;html=1;shape=mxgraph.aws3.internet_gateway;fillColor=#F58536;gradientColor=none;" vertex="1" parent="1">
          <mxGeometry x="580" y="1430" width="69" height="72" as="geometry" />
        </mxCell>
        <mxCell id="U3MqHlU8IIbX6q1QZV_S-15" value="" style="outlineConnect=0;dashed=0;verticalLabelPosition=bottom;verticalAlign=top;align=center;html=1;shape=mxgraph.aws3.internet_2;fillColor=#D2D3D3;gradientColor=none;" vertex="1" parent="1">
          <mxGeometry x="710" y="1434" width="89.5" height="64" as="geometry" />
        </mxCell>
        <mxCell id="U3MqHlU8IIbX6q1QZV_S-16" value="" style="edgeStyle=orthogonalEdgeStyle;rounded=0;orthogonalLoop=1;jettySize=auto;html=1;" edge="1" parent="1" source="U3MqHlU8IIbX6q1QZV_S-13" target="U3MqHlU8IIbX6q1QZV_S-14">
          <mxGeometry relative="1" as="geometry" />
        </mxCell>
      </root>
    </mxGraphModel>
  </diagram>
</mxfile>
